<svg width="18" height="20" viewBox="0 0 18 20" fill="none" xmlns="http://www.w3.org/2000/svg">
<path d="M9.04819 3.48418C9.38872 3.48418 10.1978 3.69952 10.1978 3.69952C12.3895 4.20178 13.9323 6.22063 13.9323 8.5V14.6352L14.3804 15.0854L14.7548 15.4615H3.2454L3.61982 15.0854L4.06795 14.6352V8.5C4.06795 6.22067 5.61069 4.20178 7.80247 3.69952C7.80247 3.69952 8.66992 3.48418 8.95204 3.48418M9.00011 0C8.15386 0 7.50689 0.649904 7.50689 1.5V2.19995C4.66963 2.8501 2.52949 5.45 2.52949 8.5V14L0.538574 16V17H17.4617V16L15.4707 14V8.5C15.4707 5.45 13.3305 2.8501 10.4933 2.19995V1.5C10.4933 0.649904 9.84636 0 9.00011 0ZM10.991 18H7.00915C7.00915 19.1 7.90497 20 9.00011 20C10.0953 20 10.991 19.1 10.991 18Z" fill="white"/>
</svg>
