<svg width="394" height="143" viewBox="0 0 394 143" fill="none" xmlns="http://www.w3.org/2000/svg">
<g clip-path="url(#clip0_1_7425)">
<path d="M325.869 93.8831V99.0336H394V93.8831H325.869Z" fill="white"/>
<path d="M0 93.8831V99.0336H58.3536V93.8831H0Z" fill="white"/>
<path d="M186.575 84.9987V87.1498C189.529 87.0638 190.538 89.7319 190.538 95.7558V130.867C190.538 136.89 189.529 139.558 186.575 139.472V141.623H200.554V139.472C197.599 139.558 196.663 136.89 196.663 130.867V95.239L218.063 124.67C220.225 127.596 222.314 130.436 222.314 134.567C222.314 137.493 220.945 139.042 218.639 139.472V141.537H233.123V139.386C230.168 139.472 229.16 136.804 229.16 130.78V95.7558C229.16 89.7319 230.168 87.0638 233.123 87.1498V84.9987H218.639V87.1498C221.593 87.0638 223.035 89.7319 223.035 95.7558V106.598L215.109 94.9813C214.172 93.6905 212.227 91.2811 212.227 89.474C212.227 88.0971 213.091 87.494 214.1 87.1498V84.9987H186.575Z" fill="white"/>
<path d="M161.534 84.9987V87.1498C164.488 87.0638 165.497 89.7319 165.497 95.7558V130.867C165.497 136.89 164.488 139.558 161.534 139.472V141.623H184.231V139.472C181.277 139.558 180.268 136.89 180.268 130.867V95.7558C180.268 89.7319 181.277 87.0638 184.231 87.1498V84.9987H161.534Z" fill="white"/>
<path d="M106.504 84.9987V87.1498C109.458 87.0638 110.467 89.7319 110.467 95.7558V130.867C110.467 136.89 109.458 139.558 106.504 139.472V141.623H129.489V139.472C126.247 139.386 125.238 136.804 125.238 130.436V106.082H139.577V130.436C139.577 136.804 138.568 139.386 135.326 139.472V141.623H158.311V139.472C155.357 139.558 154.348 136.89 154.348 130.867V95.7558C154.348 89.7319 155.357 87.0638 158.311 87.1498V84.9987H135.326V87.1498C138.28 87.0638 139.577 89.7319 139.577 95.7558V100.403H125.238V95.7558C125.238 89.7319 126.535 87.0638 129.489 87.1498V84.9987H106.504Z" fill="white"/>
<path d="M321.055 83.3636C320.046 84.8266 318.029 85.4294 316.588 85.4294C315.074 85.4294 310.751 83.6221 303.402 83.6221C297.133 83.6221 285.244 87.0637 285.244 102.554C285.244 106.512 286.901 110.471 289.495 112.966C291.729 115.118 295.115 116.581 297.853 117.614L305.131 120.453C308.157 121.658 312.553 122.863 312.553 127.597C312.553 134.739 306.932 136.116 302.033 136.116C294.568 136.116 288.417 130.439 286.046 122.384H283.889L285.244 142.914C286.325 141.623 287.477 140.849 289.135 140.849C290.504 140.849 292.521 141.365 293.89 141.709C297.493 142.484 300.303 143 303.978 143C318.749 143 327.828 136.46 327.828 122.175C327.828 114.947 322.424 109.18 315.867 106.857L307.436 103.845C304.77 102.898 299.943 101.608 299.943 97.3048C299.726 92.3996 304.338 90.5061 307.869 90.5061C312.668 90.5061 317.465 94.325 320.102 99.229H322.646L321.055 83.3636Z" fill="white"/>
<path d="M65.0276 83.1229L61.9941 99.9758H63.8595C66.0758 93.3839 70.91 89.7729 77.1939 89.6132V130.065C77.1939 136.467 76.1519 139.311 71.3132 139.4V141.624H98.336V139.4C93.4973 139.311 92.4545 136.467 92.4545 130.065V89.6132C98.9878 90.0909 103.009 93.5724 105.597 99.9758H107.601L104.755 83.1229H65.0276Z" fill="white"/>
<path d="M274.286 83.0199C273.349 84.5689 271.908 85.4294 270.323 85.4294C269.242 85.4294 268.161 85.1715 267.08 84.9133C263.405 84.0528 261.244 83.6228 255.84 83.6228C244.893 83.6228 235.283 88.6437 231.292 99.2021V122.656C232.974 127.583 235.677 132.03 239.196 135.256C245.32 140.849 252.958 141.624 260.379 141.624H283.581V139.473C282.428 138.956 281.204 138.44 280.627 137.063C279.907 135.428 279.978 131.383 279.978 129.49V119.507C279.978 114.946 279.402 109.87 284.518 109.525V107.374H261.388V109.525C266.144 109.784 265.784 114.345 265.784 118.561V126.478C265.784 128.544 265.856 131.297 264.991 133.105C264.054 135.17 261.82 135.944 259.947 135.944C249.715 135.944 245.176 122.089 245.176 111.763C245.176 101.092 249.067 90.0769 259.37 90.0769C266.432 90.0769 272.412 95.7562 275.006 103.415L276.519 103.157L274.286 83.0199Z" fill="white"/>
<path d="M91.2759 13.6935V15.8454C94.2301 15.7593 95.2382 18.4267 95.2382 24.4506V59.5614C95.2382 65.5853 94.2301 68.2527 91.2759 68.1666V70.3185H113.901V68.1666C110.947 68.2527 109.938 65.5853 109.938 59.5614V44.502L112.46 43.4692C115.486 47.6859 122.691 60.0778 122.691 65.3272C122.691 67.6507 121.394 68.0806 119.737 68.1666V70.3185H151.005V68.1666C149.059 67.9085 147.69 67.0482 147.69 64.3804C147.69 62.4872 148.555 59.2174 149.059 57.4103L151.653 48.632C155.688 48.3738 159.218 49.6652 162.533 52.4189C165.343 54.6564 168.586 58.9586 168.586 63.1753C168.586 66.1012 166.929 67.9945 164.623 68.1666V70.3185H199.312V68.1666C196.358 68.2527 195.421 65.5853 195.421 59.5614V23.9345L216.821 53.3649C218.983 56.2908 221.073 59.1315 221.073 63.2622C221.073 66.1881 219.703 67.7363 217.397 68.1666V70.2324H231.881V68.0812C228.927 68.1673 227.918 65.4991 227.918 59.4752V24.4506C227.918 18.4267 228.927 15.7593 231.881 15.8454V13.6935H217.397V15.8454C220.352 15.7593 221.793 18.4267 221.793 24.4506V35.2938L213.868 23.6761C212.931 22.3853 210.985 19.9759 210.985 18.1687C210.985 16.7918 211.85 16.1896 212.859 15.8454V13.6935H185.334V15.8454C188.288 15.7593 189.296 18.4267 189.296 24.4506V59.5614C189.296 63.6601 188.828 66.202 187.599 67.3829C185.257 65.6151 184.378 61.3763 183.501 58.4424C178.529 40.887 172.261 19.1152 172.261 17.9965C172.261 16.5335 172.837 16.0175 173.918 15.8454V13.6935H152.878V15.8454C153.887 16.0175 154.463 16.7056 154.463 17.9965C154.463 19.2012 153.599 21.6106 153.239 22.6432L141.926 58.3562C141.261 60.278 140.558 62.3971 139.569 64.1928C139.138 63.1704 138.801 62.0888 138.544 61.1103C136.022 51.9024 131.842 43.2965 126.51 37.1865C131.265 34.2607 136.742 29.5274 136.742 22.3848C136.742 18.9426 135.085 16.4478 132.563 15.0709C129.825 13.7801 126.654 13.7795 123.7 13.6935H91.2759ZM115.414 19.3731C119.017 19.3731 121.466 21.6107 121.466 25.9995C121.466 33.3142 114.838 36.7565 109.938 38.2194V25.4835C109.938 24.1926 109.794 22.0416 110.586 21.009C111.667 19.7181 113.973 19.3731 115.414 19.3731ZM158.427 25.1389L163.903 45.5349C161.021 43.1253 157.49 41.232 153.887 41.318L158.427 25.1389Z" fill="white"/>
<path d="M325.869 13.3635V16.1461C329.69 16.0347 330.994 19.4859 330.994 27.2777V72.6926C330.994 80.4845 329.69 83.9356 325.869 83.8243V86.6068H355.134V83.8243C351.313 83.9356 350.008 80.4845 350.008 72.6926V53.2134L353.27 51.8775C357.185 57.3318 366.505 73.3604 366.505 80.1504C366.505 83.1558 364.827 83.713 362.684 83.8243V86.6068H394V83.8243C389.899 83.8243 388.035 78.592 387.009 74.6961C383.747 62.7857 378.342 51.6546 371.445 43.7514C377.596 39.9668 384.679 33.8448 384.679 24.6059C384.679 20.1535 382.535 16.9257 379.273 15.1447C375.732 13.475 371.631 13.4748 367.81 13.3635H325.869ZM357.092 20.7098C361.752 20.7098 364.92 23.6043 364.92 29.2812C364.92 38.7427 356.346 43.195 350.008 45.0873V28.6136C350.008 26.9439 349.822 24.1605 350.847 22.8247C352.245 21.1551 355.228 20.7098 357.092 20.7098Z" fill="white"/>
<path d="M49.9262 12.9144L46.9097 29.6765H48.765C50.9693 23.1204 55.7766 19.5288 62.0263 19.37V59.6021C62.0263 65.9686 60.9903 68.798 56.1779 68.8865V71.0976H83.0538V68.8865C78.2414 68.798 77.2046 65.9686 77.2046 59.6021V19.37C83.7024 19.8452 87.7016 23.3079 90.2751 29.6765H92.2689L89.437 12.9144H49.9262Z" fill="white"/>
<path d="M321.95 12.3168C320.581 14.0379 317.699 13.6935 315.898 13.6935H283.185V15.8454C286.139 15.7593 287.148 18.4267 287.148 24.4506V59.5614C287.148 65.5853 286.139 68.2527 283.185 68.1666V70.3185H318.924C319.717 70.3185 320.509 70.3187 321.23 70.4908C322.023 70.5768 322.671 70.9207 323.248 71.6952L329.372 49.3211L327.859 48.632C324.041 58.012 318.131 64.6389 308.908 64.6389C303.216 64.6389 301.919 62.4015 301.919 56.5497V37.8749H303.865C307.467 37.8749 310.494 37.531 313.304 40.629C313.831 41.2016 314.31 41.8328 314.744 42.507L317.6 42.1663L315.447 27.3223H313.524C312.732 32.6601 308.484 32.196 304.226 32.196H301.919V29.4419C301.919 22.5575 301.487 19.3731 308.549 19.3731C315.754 19.3731 321.951 24.3647 324.04 32.712L325.625 32.1091L321.95 12.3168Z" fill="white"/>
<path d="M273.044 11.7146C272.107 13.2636 270.667 14.1242 269.081 14.1242C268.001 14.1242 266.919 13.8663 265.839 13.6081C262.164 12.7475 260.002 12.3168 254.598 12.3168C243.651 12.3168 234.041 17.3385 230.051 27.8968V51.3507C231.732 56.2774 234.435 60.7252 237.954 63.9505C244.079 69.5441 251.716 70.3185 259.138 70.3185H282.339V68.1666C281.186 67.6503 279.961 67.1348 279.385 65.7579C278.664 64.1228 278.737 60.078 278.737 58.1847V48.2021C278.737 43.6411 278.16 38.5637 283.276 38.2194V36.0683H260.146V38.2194C264.902 38.4776 264.542 43.0386 264.542 47.2553V55.1723C264.542 57.2376 264.613 59.9922 263.749 61.7994C262.812 63.8647 260.578 64.6389 258.705 64.6389C248.473 64.6389 243.934 50.7833 243.934 40.4567C243.934 29.7858 247.825 18.7709 258.129 18.7709C265.19 18.7709 271.17 24.4501 273.764 32.1091L275.278 31.8522L273.044 11.7146Z" fill="white"/>
<path d="M23.2999 10.1703C15.2029 10.1703 0.00871855 14.4531 3.26949e-06 34.031C-0.00527633 45.8135 6.38403 50.6191 16.044 54.2932L25.4438 57.9609C29.3527 59.5171 35.0306 60.9926 35.0306 67.1061C35.0306 76.3318 28.0141 77.9893 21.6854 77.9893C12.3504 77.9893 7.54478 70.6145 4.54101 61.348H1.39901L3.26949e-06 86.8922C1.39603 85.2249 2.8852 84.3465 5.02581 84.3465C6.79418 84.3465 9.39989 85.0125 11.1682 85.4571C15.8217 86.4575 19.4514 87.1244 24.1979 87.1244C43.2772 87.1244 55.0046 78.5559 55.0046 60.1044C55.0046 50.7674 48.0248 43.3194 39.5554 40.3182L28.665 36.4282C25.2215 35.2055 19.1163 33.5361 18.9859 27.9799C18.837 21.6397 24.6632 19.1993 29.2237 19.1993C35.4228 19.1993 41.7408 24.6581 45.1469 30.9924L48.4027 12.8975C48.4027 12.8975 47.3755 13.6953 44.5312 13.312C41.3184 12.879 36.6715 10.1703 23.2999 10.1703Z" fill="white"/>
<path d="M0 1.23053e-06V5.1513L384.531 5.1513V0L0 1.23053e-06Z" fill="white"/>
</g>
<defs>
<clipPath id="clip0_1_7425">
<rect width="394" height="143" fill="white"/>
</clipPath>
</defs>
</svg>
