<svg width="69" height="23" viewBox="0 0 69 23" fill="none" xmlns="http://www.w3.org/2000/svg">
<path d="M27.8011 9.36364C27.7415 8.85985 27.4995 8.46875 27.0753 8.19034C26.651 7.91193 26.1307 7.77273 25.5142 7.77273C25.0634 7.77273 24.669 7.84564 24.331 7.99148C23.9962 8.13731 23.7344 8.33783 23.5455 8.59304C23.3598 8.84825 23.267 9.13826 23.267 9.46307C23.267 9.73485 23.3317 9.96851 23.4609 10.1641C23.5935 10.3563 23.7625 10.517 23.968 10.6463C24.1735 10.7723 24.389 10.8767 24.6143 10.9595C24.8397 11.0391 25.0469 11.1037 25.2358 11.1534L26.2699 11.4318C26.535 11.5014 26.83 11.5975 27.1548 11.7202C27.483 11.8428 27.7962 12.0102 28.0945 12.2223C28.3961 12.4311 28.6446 12.6996 28.8402 13.0277C29.0357 13.3558 29.1335 13.7585 29.1335 14.2358C29.1335 14.786 28.9893 15.2831 28.701 15.7273C28.416 16.1714 27.9983 16.5244 27.4482 16.7862C26.9013 17.0481 26.2367 17.179 25.4545 17.179C24.7254 17.179 24.094 17.0613 23.5604 16.826C23.0301 16.5907 22.6125 16.2625 22.3075 15.8416C22.0059 15.4207 21.8352 14.9318 21.7955 14.375H23.0682C23.1013 14.7595 23.2306 15.0777 23.456 15.3295C23.6847 15.5781 23.973 15.7637 24.321 15.8864C24.6723 16.0057 25.0502 16.0653 25.4545 16.0653C25.9252 16.0653 26.3478 15.9891 26.7223 15.8366C27.0968 15.6809 27.3935 15.4654 27.6122 15.1903C27.831 14.9119 27.9403 14.5871 27.9403 14.2159C27.9403 13.8778 27.8459 13.6027 27.657 13.3906C27.468 13.1785 27.2195 13.0062 26.9112 12.8736C26.603 12.741 26.2699 12.625 25.9119 12.5256L24.6591 12.1676C23.8636 11.9389 23.2339 11.6125 22.7699 11.1882C22.3059 10.764 22.0739 10.2088 22.0739 9.52273C22.0739 8.95265 22.228 8.45549 22.5362 8.03125C22.8478 7.60369 23.2654 7.27225 23.7891 7.03693C24.3161 6.7983 24.9044 6.67898 25.554 6.67898C26.2102 6.67898 26.7936 6.79664 27.304 7.03196C27.8144 7.26397 28.2188 7.58215 28.517 7.98651C28.8187 8.39086 28.9777 8.8499 28.9943 9.36364H27.8011ZM31.1607 17V6.81818H37.3056V7.91193H32.3936V11.3523H36.9874V12.446H32.3936V15.9062H37.3851V17H31.1607ZM33.6863 5.78409L34.8993 3.47727H36.2715L34.7203 5.78409H33.6863ZM39.5279 17V6.81818H42.9682C43.7637 6.81818 44.4166 6.95407 44.927 7.22585C45.4374 7.49432 45.8153 7.86387 46.0605 8.33452C46.3058 8.80516 46.4284 9.34044 46.4284 9.94034C46.4284 10.5402 46.3058 11.0722 46.0605 11.5362C45.8153 12.0002 45.4391 12.3648 44.932 12.63C44.4249 12.8918 43.7769 13.0227 42.9881 13.0227H40.204V11.9091H42.9483C43.4919 11.9091 43.9294 11.8295 44.2608 11.6705C44.5956 11.5114 44.8375 11.286 44.9867 10.9943C45.1391 10.6993 45.2154 10.348 45.2154 9.94034C45.2154 9.53267 45.1391 9.17637 44.9867 8.87145C44.8342 8.56652 44.5906 8.3312 44.2559 8.16548C43.9211 7.99645 43.4786 7.91193 42.9284 7.91193H40.7608V17H39.5279ZM44.3205 12.4261L46.8262 17H45.3944L42.9284 12.4261H44.3205ZM49.7159 6.81818V17H48.483V6.81818H49.7159ZM52.188 17V6.81818H58.3329V7.91193H53.421V11.3523H58.0147V12.446H53.421V15.9062H58.4125V17H52.188ZM66.1234 9.36364C66.0637 8.85985 65.8218 8.46875 65.3975 8.19034C64.9733 7.91193 64.4529 7.77273 63.8365 7.77273C63.3857 7.77273 62.9913 7.84564 62.6532 7.99148C62.3185 8.13731 62.0566 8.33783 61.8677 8.59304C61.6821 8.84825 61.5893 9.13826 61.5893 9.46307C61.5893 9.73485 61.6539 9.96851 61.7832 10.1641C61.9158 10.3563 62.0848 10.517 62.2903 10.6463C62.4958 10.7723 62.7112 10.8767 62.9366 10.9595C63.162 11.0391 63.3691 11.1037 63.5581 11.1534L64.5922 11.4318C64.8573 11.5014 65.1523 11.5975 65.4771 11.7202C65.8052 11.8428 66.1184 12.0102 66.4167 12.2223C66.7183 12.4311 66.9669 12.6996 67.1625 13.0277C67.358 13.3558 67.4558 13.7585 67.4558 14.2358C67.4558 14.786 67.3116 15.2831 67.0233 15.7273C66.7382 16.1714 66.3206 16.5244 65.7704 16.7862C65.2235 17.0481 64.559 17.179 63.7768 17.179C63.0476 17.179 62.4163 17.0613 61.8826 16.826C61.3523 16.5907 60.9347 16.2625 60.6298 15.8416C60.3282 15.4207 60.1575 14.9318 60.1177 14.375H61.3904C61.4236 14.7595 61.5529 15.0777 61.7782 15.3295C62.0069 15.5781 62.2953 15.7637 62.6433 15.8864C62.9946 16.0057 63.3725 16.0653 63.7768 16.0653C64.2475 16.0653 64.67 15.9891 65.0446 15.8366C65.4191 15.6809 65.7157 15.4654 65.9345 15.1903C66.1532 14.9119 66.2626 14.5871 66.2626 14.2159C66.2626 13.8778 66.1681 13.6027 65.9792 13.3906C65.7903 13.1785 65.5417 13.0062 65.2335 12.8736C64.9252 12.741 64.5922 12.625 64.2342 12.5256L62.9814 12.1676C62.1859 11.9389 61.5562 11.6125 61.0922 11.1882C60.6281 10.764 60.3961 10.2088 60.3961 9.52273C60.3961 8.95265 60.5502 8.45549 60.8585 8.03125C61.17 7.60369 61.5877 7.27225 62.1113 7.03693C62.6383 6.7983 63.2266 6.67898 63.8762 6.67898C64.5325 6.67898 65.1158 6.79664 65.6262 7.03196C66.1367 7.26397 66.541 7.58215 66.8393 7.98651C67.1409 8.39086 67.3 8.8499 67.3166 9.36364H66.1234Z" fill="white"/>
<g clip-path="url(#clip0_3_1625)">
<path d="M-0.0273438 -0.0265045L0.0542138 23.0614C1.78262 22.7369 3.14179 22.7723 4.67581 22.6373V2.8573e-06L-0.0273438 -0.0265045Z" fill="url(#paint0_linear_3_1625)"/>
<path d="M8.34603 0H13.0492L13.1036 23.0084L8.31885 22.2397L8.34603 0Z" fill="url(#paint1_linear_3_1625)"/>
<path d="M0.0273438 0C0.136087 0.265074 8.1831 22.5843 8.1831 22.5843C9.50539 22.5751 11.2784 22.7856 13.0222 22.9819L4.64894 0H0.0273438Z" fill="#E50914"/>
</g>
<defs>
<linearGradient id="paint0_linear_3_1625" x1="1.84528" y1="9.74665" x2="5.20362" y2="8.33762" gradientUnits="userSpaceOnUse">
<stop stop-color="#B1060F"/>
<stop offset="0.546072" stop-color="#7B010C"/>
<stop offset="1" stop-color="#E50914" stop-opacity="0"/>
</linearGradient>
<linearGradient id="paint1_linear_3_1625" x1="10.765" y1="11.9959" x2="7.33176" y2="13.4826" gradientUnits="userSpaceOnUse">
<stop stop-color="#B1060F"/>
<stop offset="0.625007" stop-color="#7B010C"/>
<stop offset="1" stop-color="#B1060F" stop-opacity="0"/>
</linearGradient>
<clipPath id="clip0_3_1625">
<rect width="13" height="23" fill="white"/>
</clipPath>
</defs>
</svg>
